{"title":"WWE.Extreme.Rules.2011.x264-SPK1998","uid":6361529,"size":1170396484,"categoryP":"video","categoryS":"tv_shows","magnet":"?xt=urn:btih:12df2d6a2ea2ed6f249ae1251cf92c175b2bc7ba&amp;dn=WWE.Extreme.Rules.2011.x264-SPK1998&amp;tr=udp%3A%2F%2Ftracker.openbittorrent.com%3A80&amp;tr=udp%3A%2F%2Fopen.demonii.com%3A1337&amp;tr=udp%3A%2F%2Ftracker.coppersurfer.tk%3A6969&amp;tr=udp%3A%2F%2Fexodus.desync.com%3A6969","seeders":0,"leechers":1,"uploader":"spyke1998","files":2,"time":1304345182,"description":"Format                           : AVI\nFormat/Info                      : Audio Video Interleave\nFile size                        : 195 MiB\nDuration                         : 30mn 0s\nOverall bit rate                 : 909 Kbps\nWriting application              : MEncoder SVN-r29352(20090610-gcc4.3.3)\nWriting library                  : MPlayer\n\nVideo\nID                               : 0\nFormat                           : AVC\nFormat/Info                      : Advanced Video Codec\nFormat profile                   : &lt;a class=&quot;__cf_email__&quot; href=&quot;/cdn-cgi/l/email-protection&quot; data-cfemail=&quot;12507361777e7b7c77525e203c23&quot;&gt;[email&amp;#160;protected]&lt;/a&gt;&lt;script cf-hash='f9e31' type=&quot;text/javascript&quot;&gt;\n/* &lt;![CDATA[ */!function(){try{var t=&quot;currentScript&quot;in document?document.currentScript:function(){for(var t=document.getElementsByTagName(&quot;script&quot;),e=t.length;e--;)if(t[e].getAttribute(&quot;cf-hash&quot;))return t[e]}();if(t&amp;&amp;t.previousSibling){var e,r,n,i,c=t.previousSibling,a=c.getAttribute(&quot;data-cfemail&quot;);if(a){for(e=&quot;&quot;,r=parseInt(a.substr(0,2),16),n=2;a.length-n;n+=2)i=parseInt(a.substr(n,2),16)^r,e+=String.fromCharCode(i);e=document.createTextNode(e),c.parentNode.replaceChild(e,c)}}}catch(u){}}();/* ]]&gt; */&lt;/script&gt;\nFormat settings, CABAC           : No\nFormat settings, ReFrames        : 1 frame\nCodec ID                         : avc1\nDuration                         : 30mn 0s\nBit rate                         : 768 Kbps\nWidth                            : 320 pixels\nHeight                           : 180 pixels\nDisplay aspect ratio             : 16:9\nFrame rate                       : 23.976 fps\nColor space                      : YUV\nChroma subsampling               : 4:2:0\nBit depth                        : 8 bits\nScan type                        : Progressive\nBits/(Pixel*Frame)               : 0.556\nStream size                      : 165 MiB (85%)\nWriting library                  : x264 core 67 r1163+17 7d945df\nEncoding settings                : cabac=0 / ref=1 / deblock=1:0:0 / analyse=0x1:0x111 / me=dia / subme=6 / psy_rd=1.0:0.0 / mixed_ref=0 / me_range=16 / chroma_me=1 / trellis=0 / 8x8dct=0 / cqm=0 / deadzone=21,11 / chroma_qp_offset=-2 / threads=1 / nr=0 / decimate=1 / mbaff=0 / bframes=0 / keyint=250 / keyint_min=25 / scenecut=40 / rc=abr / bitrate=768 / ratetol=1.0 / qcomp=0.60 / qpmin=10 / qpmax=51 / qpstep=4 / ip_ratio=1.40 / aq=1:1.00\n\nAudio\nID                               : 1\nFormat                           : MPEG Audio\nFormat version                   : Version 1\nFormat profile                   : Layer 3\nMode                             : Joint stereo\nMode extension                   : MS Stereo\nCodec ID                         : 55\nCodec ID/Hint                    : MP3\nDuration                         : 30mn 0s\nBit rate mode                    : Constant\nBit rate                         : 128 Kbps\nChannel(s)                       : 2 channels\nSampling rate                    : 48.0 KHz\nCompression mode                 : Lossy\nDelay relative to video          : 40ms\nStream size                      : 27.5 MiB (14%)\nAlignment                        : Aligned on interleaves\nInterleave, duration             : 24 ms (0.58 video frame)\nInterleave, preload duration     : 504 ms","torrent":{"xt":"urn:btih:12df2d6a2ea2ed6f249ae1251cf92c175b2bc7ba","amp;dn":"WWE.Extreme.Rules.2011.x264-SPK1998","amp;tr":["udp%3A%2F%2Ftracker.openbittorrent.com%3A80","udp%3A%2F%2Fopen.demonii.com%3A1337","udp%3A%2F%2Ftracker.coppersurfer.tk%3A6969","udp%3A%2F%2Fexodus.desync.com%3A6969"],"infoHash":"12df2d6a2ea2ed6f249ae1251cf92c175b2bc7ba","infoHashBuffer":{"type":"Buffer","data":[18,223,45,106,46,162,237,111,36,154,225,37,28,249,44,23,91,43,199,186]},"announce":[],"urlList":[]}}